<?xml version="1.0" standalone="no"?>
<!DOCTYPE svg PUBLIC "-//W3C//DTD SVG 20010904//EN"
 "http://www.w3.org/TR/2001/REC-SVG-20010904/DTD/svg10.dtd">
<svg version="1.0" xmlns="http://www.w3.org/2000/svg"
 width="833.000000pt" height="338.000000pt" viewBox="0 0 833.000000 338.000000"
 preserveAspectRatio="xMidYMid meet">

<g transform="translate(0.000000,338.000000) scale(0.100000,-0.100000)"
fill="#000000" stroke="none">
<path d="M4196 2179 c-106 -84 -115 -299 -16 -407 16 -18 30 -39 29 -45 0 -7
-27 -29 -60 -51 -62 -39 -135 -122 -166 -186 -9 -19 -18 -55 -21 -80 -3 -39 0
-51 23 -78 33 -39 68 -42 116 -9 60 40 113 133 161 282 41 132 44 138 81 156
41 22 52 46 12 27 -14 -6 -28 -8 -31 -5 -4 4 1 47 10 96 9 49 16 126 16 171 0
113 -22 149 -91 150 -22 0 -47 -8 -63 -21z m95 -26 c8 -21 7 -53 -6 -128 -17
-105 -51 -255 -61 -264 -8 -8 -42 38 -65 87 -25 58 -25 139 3 216 31 87 53
116 89 116 23 0 32 -6 40 -27z m-85 -481 c-2 -4 -21 -64 -41 -132 -41 -141
-63 -184 -108 -206 -30 -16 -32 -16 -50 7 -24 30 -17 81 20 159 29 60 141 180
168 180 9 0 14 -4 11 -8z"/>
<path d="M5661 2174 c-59 -75 -111 -247 -118 -394 -6 -116 -4 -112 -92 -171
-47 -30 -97 -37 -132 -19 -38 21 -22 45 54 83 90 45 111 67 111 114 0 45 -23
63 -81 63 -78 0 -156 -59 -185 -140 -8 -24 -16 -30 -39 -30 -33 0 -33 1 -17
69 8 38 9 57 0 76 -12 26 -44 33 -71 16 -23 -14 -26 -94 -5 -151 l18 -50 -32
-33 c-26 -26 -35 -30 -50 -21 -14 9 -17 30 -20 138 -2 96 -6 126 -16 126 -22
0 -42 -32 -76 -123 -24 -63 -42 -96 -67 -117 -18 -17 -38 -30 -43 -30 -15 0
-12 117 5 185 19 78 18 85 -3 85 -37 0 -54 -35 -77 -152 -7 -36 -93 -105 -142
-114 -46 -9 -87 6 -91 31 -2 16 13 29 75 60 59 31 83 49 97 76 17 31 18 38 5
64 -13 27 -20 30 -66 33 -85 5 -164 -51 -194 -138 -15 -41 4 -94 45 -125 59
-45 174 -28 230 34 26 29 33 27 50 -14 28 -65 92 -58 142 16 16 23 34 44 39
46 6 2 17 -16 25 -39 29 -81 95 -88 161 -17 20 21 44 39 53 39 10 0 26 5 36
10 17 9 22 6 34 -23 21 -51 64 -77 126 -77 60 0 106 19 145 60 34 35 45 38 45
10 0 -30 44 -70 78 -70 31 0 74 28 115 75 l26 30 1 -28 c0 -36 41 -77 76 -77
36 0 90 35 119 78 l24 35 6 -26 c4 -15 23 -40 41 -57 30 -26 42 -30 92 -30 42
0 68 7 101 25 23 14 45 25 47 25 2 0 4 -11 4 -25 0 -21 5 -25 29 -25 27 0 32
5 51 58 12 31 33 76 47 100 l25 43 38 -40 c23 -26 43 -39 52 -36 12 5 16 -4
20 -40 11 -90 60 -108 140 -49 27 20 51 34 53 32 8 -8 -17 -122 -29 -133 -6
-5 -12 -32 -13 -58 -4 -77 -47 -143 -73 -112 -10 12 -9 24 3 62 19 56 15 67
-8 23 -9 -17 -15 -48 -13 -68 2 -30 7 -38 26 -40 13 -2 34 3 47 12 28 19 75
114 75 153 0 22 15 43 74 98 41 39 77 81 81 95 5 22 3 21 -22 -10 -52 -65
-116 -125 -120 -113 -3 7 16 78 41 157 25 79 46 147 46 150 0 3 -13 6 -28 6
-27 0 -31 -6 -71 -109 -54 -141 -110 -194 -145 -139 -8 13 -4 42 13 115 30
128 30 127 4 131 -28 4 -49 -28 -65 -96 -14 -56 -18 -60 -42 -37 -14 14 -14
21 4 68 26 67 26 67 -11 67 -22 0 -38 -9 -57 -31 -15 -18 -40 -46 -55 -63
l-29 -31 7 40 c12 73 11 80 -12 83 -31 5 -50 -30 -65 -122 -13 -79 -13 -79
-62 -113 -58 -40 -114 -45 -146 -13 -12 12 -18 25 -15 31 4 5 42 27 85 49 85
43 100 60 100 112 0 46 -15 58 -72 58 -85 0 -154 -51 -192 -141 -14 -34 -106
-129 -124 -129 -21 0 -35 33 -36 85 0 48 7 69 69 191 70 136 70 137 73 228 3
76 1 94 -13 106 -32 27 -67 1 -108 -80 -49 -97 -78 -211 -84 -332 l-6 -98 -53
-50 c-29 -27 -57 -50 -62 -50 -21 0 -36 35 -36 85 -1 46 8 70 68 190 66 130
70 140 74 219 3 52 0 91 -7 104 -16 30 -55 28 -80 -4z m69 -62 c0 -45 -9 -81
-38 -153 -43 -105 -71 -160 -72 -141 -2 61 52 315 72 339 25 30 38 14 38 -45z
m218 -14 c-4 -58 -14 -94 -48 -173 -24 -55 -45 -102 -47 -104 -11 -14 -10 16
3 103 25 172 50 246 80 246 14 0 16 -11 12 -72z m-1340 -306 c3 -28 -3 -40
-36 -71 -22 -21 -49 -41 -61 -44 -18 -4 -21 -1 -21 25 0 32 31 94 59 116 28
23 56 11 59 -26z m810 1 c4 -37 -42 -95 -88 -112 -29 -10 -30 -9 -30 19 0 31
33 97 59 118 28 22 56 11 59 -25z m762 22 c28 -33 -9 -94 -77 -129 l-33 -17 0
31 c0 17 9 48 20 70 28 56 65 75 90 45z m-1049 -39 c14 -30 4 -76 -16 -76 -24
0 -40 45 -27 75 15 32 29 32 43 1z"/>
<path d="M2510 1800 l0 -240 35 0 35 0 0 123 c0 112 2 126 20 142 28 25 88 25
106 0 10 -14 14 -53 14 -142 l0 -123 35 0 35 0 0 126 c0 93 -4 135 -15 159
-27 56 -100 72 -161 34 l-34 -21 0 91 0 91 -35 0 -35 0 0 -240z"/>
<path d="M1786 1797 c-44 -116 -82 -218 -84 -225 -3 -10 5 -13 33 -10 36 3 39
6 55 53 l17 50 92 0 93 0 20 -52 c18 -50 21 -53 54 -53 19 0 34 3 34 8 0 4
-37 105 -82 225 l-82 217 -35 0 -36 0 -79 -213z m184 -68 c0 -5 -31 -9 -70 -9
-38 0 -70 1 -70 3 0 8 59 178 66 188 6 10 74 -157 74 -182z"/>
<path d="M2224 1886 c-32 -14 -64 -51 -64 -73 0 -8 13 -13 34 -13 25 0 35 5
39 20 6 22 46 35 81 26 24 -6 52 -59 40 -77 -3 -5 -24 -9 -47 -9 -63 0 -114
-18 -137 -47 -69 -88 46 -198 151 -144 32 17 39 18 39 6 0 -11 11 -15 39 -15
l38 0 -8 43 c-4 23 -8 85 -9 138 0 83 -3 98 -21 118 -39 42 -114 53 -175 27z
m136 -200 c0 -60 -84 -101 -124 -60 -42 42 -1 94 74 94 l50 0 0 -34z"/>
<path d="M2932 1883 c-28 -13 -62 -57 -62 -78 0 -3 14 -5 31 -5 21 0 37 8 51
25 37 47 118 20 118 -40 0 -23 -3 -25 -52 -25 -78 -1 -134 -29 -147 -75 -19
-68 14 -115 92 -129 29 -6 46 -3 72 13 28 16 34 17 39 5 3 -8 19 -14 38 -14
l33 0 -3 112 c-3 143 -14 183 -55 208 -39 24 -110 26 -155 3z m138 -195 c0
-39 -7 -51 -37 -67 -36 -18 -71 -13 -88 13 -30 45 9 85 83 86 41 0 42 -1 42
-32z"/>
<path d="M3230 1730 l0 -170 35 0 35 0 0 123 c0 67 4 127 8 134 15 23 62 34
90 20 27 -12 27 -12 30 -145 l3 -132 35 0 35 0 -3 146 c-3 146 -3 146 -31 170
-35 30 -89 32 -135 4 -40 -25 -42 -25 -42 0 0 16 -7 20 -30 20 l-30 0 0 -170z"/>
<path d="M3643 1881 c-60 -37 -69 -81 -18 -81 24 0 35 5 35 15 0 8 9 19 19 25
49 26 101 -1 101 -53 0 -26 -2 -27 -50 -27 -92 0 -150 -41 -150 -106 0 -17 9
-43 21 -57 35 -46 129 -58 160 -21 15 18 29 18 29 -1 0 -11 11 -15 36 -15 36
0 36 1 30 31 -3 17 -6 78 -6 135 0 100 -1 105 -29 136 -24 27 -36 32 -87 35
-46 3 -66 0 -91 -16z m137 -200 c0 -30 -6 -44 -22 -55 -46 -33 -108 -13 -108
34 0 38 32 60 87 60 l43 0 0 -39z"/>
</g>
</svg>
